<svg xmlns="http://www.w3.org/2000/svg" id="Layer_1" data-name="Layer 1" viewBox="0 0 663.46 178.55"><defs><style>.cls-1{fill:#67b267}.cls-2{fill:#6eff78}.cls-3{fill:#fff}</style></defs><title>logo</title><path d="M535.29,24.78a76.71,76.71,0,0,1,17.08-6.45,68,68,0,0,1,9.17-1.6,48.69,48.69,0,0,1,8.66-.25,41.69,41.69,0,0,1,10.95,2.28,36.27,36.27,0,0,1,7.6,3.59,41.85,41.85,0,0,1,7.51,6.24,71.28,71.28,0,0,1,5.5,6,58.88,58.88,0,0,1,5.38,10.06,57.11,57.11,0,0,1,2.67,8,57.63,57.63,0,0,1-11.54,6.9,57.84,57.84,0,0,1-17.09,4.66,57.35,57.35,0,0,1-9.74-.84,57.49,57.49,0,0,1-8.26-2.06,47.39,47.39,0,0,1-13.76-9,54.18,54.18,0,0,1-10.95-16.75A52.44,52.44,0,0,1,535.29,24.78Z" class="cls-1" transform="translate(-36.43 4.92)"/><path d="M699.88,24.78a76.85,76.85,0,0,0-17.07-6.45,68.06,68.06,0,0,0-9.18-1.6,48.57,48.57,0,0,0-8.65-.25,41.75,41.75,0,0,0-11,2.28,36.5,36.5,0,0,0-7.6,3.59,41.85,41.85,0,0,0-7.51,6.24,71.28,71.28,0,0,0-5.5,6,58.39,58.39,0,0,0-8,18.1,57.63,57.63,0,0,0,11.54,6.9A57.91,57.91,0,0,0,654,64.28a57.35,57.35,0,0,0,9.74-.84A57.16,57.16,0,0,0,672,61.38a47.81,47.81,0,0,0,7.08-3.76,48.24,48.24,0,0,0,6.68-5.21,53.82,53.82,0,0,0,11-16.75A52.44,52.44,0,0,0,699.88,24.78Z" class="cls-1" transform="translate(-36.43 4.92)"/><path d="M47.66,126.63a9.35,9.35,0,0,1-3.53-4.9,9.2,9.2,0,0,1,0-5.64A13,13,0,0,1,47,111.23a7.71,7.71,0,0,1,5.11-2.45,12.59,12.59,0,0,1,6.72,1.47c.45.2,1.68.83,3.68,1.91s3.72,2,5.2,2.65a38.93,38.93,0,0,0,6.32,2.11,40.75,40.75,0,0,0,8.54,1.28,29.88,29.88,0,0,0,6.57,0,43.51,43.51,0,0,0,6.58-1.13,10.81,10.81,0,0,0,5.1-2.9,7.35,7.35,0,0,0,2.06-5.35c0-1.7-1-3.35-3-5a22.74,22.74,0,0,0-8.64-3.78L77.68,96.51c-5.1-1.43-9.19-2.7-12.26-3.77a68.44,68.44,0,0,1-9.32-4.12,23.06,23.06,0,0,1-7.16-5.5,23.88,23.88,0,0,1-4-7.36,31.3,31.3,0,0,1-1.52-10.25q0-14.33,12.36-22.17t33.07-6.58a70.5,70.5,0,0,1,19.52,3.83c1.9.72,4.32,1.76,7.26,3.14a11.09,11.09,0,0,1,5.15,4.51A9.36,9.36,0,0,1,122.23,54a12.75,12.75,0,0,1-1.82,5.3,6.87,6.87,0,0,1-4.61,3.19,12.91,12.91,0,0,1-6.92-.59A84.18,84.18,0,0,0,89,57.17q-3.54-.2-7.51-.05A16.2,16.2,0,0,0,74.25,59Q71,60.8,71,63.74a6.5,6.5,0,0,0,2.6,5.5c1.73,1.31,4.6,2.42,8.59,3.33l13.44,3.34a118.82,118.82,0,0,1,13.78,4.37,42.31,42.31,0,0,1,10.06,5.64,21.77,21.77,0,0,1,6.77,8.39A29.09,29.09,0,0,1,128.6,106q.19,10.89-5.59,18.54a32.48,32.48,0,0,1-15.6,11.09,59.21,59.21,0,0,1-22.47,2.84Q63.55,137.72,47.66,126.63Z" class="cls-1" transform="translate(-36.43 4.92)"/><path d="M148.23,168.33q-3.54-5.29-3.54-15.79V60.9q0-10.5,4-16.39t11.92-5.88q7.26,0,11.23,4.31a15.75,15.75,0,0,1,4,11.09v1.18a29.52,29.52,0,0,1,12.9-14,40.9,40.9,0,0,1,19.67-4.57q18.84,0,30.71,13.35T251,88.27a65.89,65.89,0,0,1-3.48,22.22,42,42,0,0,1-9.57,15.85A40.5,40.5,0,0,1,224,135.51a45.66,45.66,0,0,1-16.88,3.09,39.75,39.75,0,0,1-19.23-4.46,27.11,27.11,0,0,1-12-12.31v30.71q0,21.09-16.18,21.09Q151.76,173.63,148.23,168.33Zm67.2-58.47q5.7-8.34,5.69-22.67A48.16,48.16,0,0,0,220,76.4a38.59,38.59,0,0,0-3.58-9.57,18.32,18.32,0,0,0-6.87-7.11,20,20,0,0,0-10.35-2.65Q176,57.07,176,87.58q0,15.32,5.94,23t16.73,7.66Q209.75,118.2,215.43,109.86Z" class="cls-1" transform="translate(-36.43 4.92)"/><path d="M270.28,116.43V54a15.25,15.25,0,0,1,3.24-10,12.85,12.85,0,0,1,7.8-4.81,22.61,22.61,0,0,1,9.12.2,13.79,13.79,0,0,1,7.8,5,15,15,0,0,1,3.24,9.72v3.43a41.7,41.7,0,0,1,3.43-7,45,45,0,0,1,5.1-6.73,23.34,23.34,0,0,1,7.26-5.34,20.5,20.5,0,0,1,8.93-2A14,14,0,0,1,332.63,38a9.68,9.68,0,0,1,4.12,3.68,15.86,15.86,0,0,1,1.86,5,12,12,0,0,1-.19,5.5,18,18,0,0,1-2.16,5,10.7,10.7,0,0,1-4,3.68,11.77,11.77,0,0,1-5.74,1.42,28.61,28.61,0,0,0-17.57,5.55q-7.46,5.54-7.45,15.45v33.94q0,10.41-3.58,15.31t-12,4.91Q270.28,137.43,270.28,116.43Z" class="cls-1" transform="translate(-36.43 4.92)"/><path d="M361.33,124.72q-13.93-13.87-13.94-36.84A57.75,57.75,0,0,1,350.73,68a48.14,48.14,0,0,1,9.81-16.19,43.78,43.78,0,0,1,17-11.08,66.33,66.33,0,0,1,23.85-4q25.8,0,40,14t14.17,37.23a56.29,56.29,0,0,1-3.38,19.77,47.17,47.17,0,0,1-10,16,45,45,0,0,1-17,10.94,66.6,66.6,0,0,1-23.79,4Q375.26,138.6,361.33,124.72Zm56.41-14.57q5.6-8,5.59-22.27,0-14.82-5.59-22.81t-16.38-8q-10.8,0-16.34,8t-5.54,22.81q0,14,5.59,22.17t16.29,8.15Q412.15,118.2,417.74,110.15Z" class="cls-1" transform="translate(-36.43 4.92)"/><path d="M484,128.45Q474,118.3,474,100.63v-41q0-10.4,3.87-15.7t12.32-5.29q8,0,11.48,5.25t3.53,15.74v40.52q0,8.64,4.46,13.35a15.07,15.07,0,0,0,11.43,4.71,18.77,18.77,0,0,0,14.28-6.28q5.83-6.28,5.84-15.8V59.62q0-10.4,3.87-15.7t12.31-5.29q7.95,0,11.48,5.25t3.54,15.74v60.73q0,8.75-3.83,12.91t-12,4.17q-15.3,0-15.31-17.27V119q-4.32,10-12.06,14.82t-20.31,4.8A33.63,33.63,0,0,1,484,128.45Z" class="cls-1" transform="translate(-36.43 4.92)"/><path d="M610.68,129.77q-8-8.63-8-28.55V59.52h-6q-5.51,0-8.2-2.64t-2.69-8.64q0-10.31,10.49-10.3h8.44l2.16-19.13Q608.67.66,621.81.66,634,.66,634,20.48V37.94h12q10.31,0,10.3,11,0,5.4-2.65,8c-1.76,1.74-4.51,2.6-8.24,2.6H634V94.45q0,12.66,2.94,17.42t10.79,4.36l5.7-.29a7,7,0,0,1,4.85,1.62,8.36,8.36,0,0,1,2.85,4.36,18.31,18.31,0,0,1,.64,5.5,10.38,10.38,0,0,1-1.62,5.25,8.25,8.25,0,0,1-4.08,3.38q-6.76,2.65-22.66,2.65Q618.68,138.4,610.68,129.77Z" class="cls-1" transform="translate(-36.43 4.92)"/><path d="M528.27,19.2a76.71,76.71,0,0,1,17.08-6.45,68,68,0,0,1,9.17-1.6,48.69,48.69,0,0,1,8.66-.25,41.28,41.28,0,0,1,11,2.28,35.77,35.77,0,0,1,7.6,3.59A41.85,41.85,0,0,1,589.24,23a71.28,71.28,0,0,1,5.5,6,57.82,57.82,0,0,1,5.38,10.06,58.58,58.58,0,0,1,2.68,8A58,58,0,0,1,591.25,54a57.76,57.76,0,0,1-17.09,4.66,58.49,58.49,0,0,1-9.74-.84,58.85,58.85,0,0,1-8.26-2.06A48.4,48.4,0,0,1,549.09,52a46.36,46.36,0,0,1-6.68-5.2,54,54,0,0,1-11-16.75A53.7,53.7,0,0,1,528.27,19.2Z" class="cls-2" transform="translate(-36.43 4.92)"/><path d="M692.87,19.2a76.9,76.9,0,0,0-17.08-6.45,68.06,68.06,0,0,0-9.18-1.6A48.54,48.54,0,0,0,658,10.9a41.28,41.28,0,0,0-11,2.28,35.77,35.77,0,0,0-7.6,3.59A41.51,41.51,0,0,0,631.9,23a70,70,0,0,0-5.51,6A59.2,59.2,0,0,0,621,39.1a58.43,58.43,0,0,0-2.67,8A57.63,57.63,0,0,0,629.88,54,57.91,57.91,0,0,0,647,58.7a58.6,58.6,0,0,0,9.75-.84A58.34,58.34,0,0,0,665,55.8,48,48,0,0,0,672.05,52a46.92,46.92,0,0,0,6.68-5.2,53.82,53.82,0,0,0,10.95-16.75A53.15,53.15,0,0,0,692.87,19.2Z" class="cls-2" transform="translate(-36.43 4.92)"/><path d="M40.64,121.05a9.39,9.39,0,0,1-3.53-4.9,9.23,9.23,0,0,1,0-5.65,13.08,13.08,0,0,1,2.9-4.85,7.69,7.69,0,0,1,5.1-2.45,12.59,12.59,0,0,1,6.72,1.47c.46.19,1.68.83,3.68,1.91s3.73,2,5.2,2.65A38.76,38.76,0,0,0,67,111.34a40.55,40.55,0,0,0,8.53,1.27,28.78,28.78,0,0,0,6.58,0,42.37,42.37,0,0,0,6.57-1.13,10.62,10.62,0,0,0,5.1-2.89,7.36,7.36,0,0,0,2.06-5.35q0-2.55-3-5a22.76,22.76,0,0,0-8.63-3.78L70.67,90.93c-5.11-1.44-9.19-2.7-12.27-3.78A67.75,67.75,0,0,1,49.08,83a23,23,0,0,1-7.16-5.49,23.77,23.77,0,0,1-4-7.36,31,31,0,0,1-1.52-10.25q0-14.32,12.36-22.18t33.06-6.57A65,65,0,0,1,93.18,32.7a66.51,66.51,0,0,1,8.2,2.31c1.89.72,4.31,1.76,7.26,3.14a11.14,11.14,0,0,1,5.15,4.51,9.34,9.34,0,0,1,1.42,5.74,12.66,12.66,0,0,1-1.82,5.3,6.87,6.87,0,0,1-4.61,3.19,13,13,0,0,1-6.91-.59A83.89,83.89,0,0,0,82,51.59q-3.54-.2-7.51-.05a16.07,16.07,0,0,0-7.21,1.91Q64,55.22,64,58.16a6.5,6.5,0,0,0,2.6,5.5c1.74,1.3,4.6,2.42,8.59,3.33l13.44,3.34a121.86,121.86,0,0,1,13.79,4.36,43.15,43.15,0,0,1,10,5.64,21.75,21.75,0,0,1,6.77,8.39,29.13,29.13,0,0,1,2.36,11.73q.19,10.89-5.6,18.54a32.48,32.48,0,0,1-15.6,11.09,59.19,59.19,0,0,1-22.46,2.84Q56.54,132.14,40.64,121.05Z" class="cls-3" transform="translate(-36.43 4.92)"/><path d="M141.21,162.75q-3.54-5.3-3.53-15.8V55.32q0-10.5,4-16.39T153.57,33q7.26,0,11.23,4.32a15.75,15.75,0,0,1,4,11.09v1.18a29.52,29.52,0,0,1,12.9-14,40.84,40.84,0,0,1,19.67-4.57q18.84,0,30.71,13.35t11.87,38.26a65.93,65.93,0,0,1-3.48,22.22,41.89,41.89,0,0,1-9.57,15.85A40.55,40.55,0,0,1,217,129.93,45.64,45.64,0,0,1,200.08,133a39.81,39.81,0,0,1-19.23-4.46,27,27,0,0,1-12-12.32V147q0,21.11-16.19,21.1Q144.74,168.05,141.21,162.75Zm67.21-58.48q5.69-8.33,5.69-22.66a48.16,48.16,0,0,0-1.18-10.79,38.59,38.59,0,0,0-3.58-9.57,18.19,18.19,0,0,0-6.87-7.11,19.88,19.88,0,0,0-10.35-2.65Q169,51.49,169,82q0,15.31,5.94,23t16.73,7.65Q202.73,112.61,208.42,104.27Z" class="cls-3" transform="translate(-36.43 4.92)"/><path d="M263.26,110.85V48.45a15.25,15.25,0,0,1,3.24-10,12.9,12.9,0,0,1,7.8-4.81,22.61,22.61,0,0,1,9.12.2,13.79,13.79,0,0,1,7.8,5,15,15,0,0,1,3.24,9.71v3.44a42.17,42.17,0,0,1,3.43-7A44.91,44.91,0,0,1,303,38.34,23.11,23.11,0,0,1,310.26,33a20.47,20.47,0,0,1,8.92-2,14,14,0,0,1,6.43,1.43,9.68,9.68,0,0,1,4.12,3.68,15.87,15.87,0,0,1,1.87,5,12.14,12.14,0,0,1-.2,5.49,18,18,0,0,1-2.16,5,10.79,10.79,0,0,1-4,3.68,11.77,11.77,0,0,1-5.74,1.42,28.64,28.64,0,0,0-17.56,5.54q-7.47,5.55-7.46,15.46v33.94q0,10.41-3.58,15.31t-12,4.9Q263.26,131.84,263.26,110.85Z" class="cls-3" transform="translate(-36.43 4.92)"/><path d="M354.31,119.14q-13.94-13.89-13.93-36.84a57.67,57.67,0,0,1,3.33-19.92,48.46,48.46,0,0,1,9.81-16.19,43.82,43.82,0,0,1,17-11.08,66.06,66.06,0,0,1,23.84-4q25.8,0,40,14T448.5,82.3a56.07,56.07,0,0,1-3.39,19.77,47.27,47.27,0,0,1-10,16,44.89,44.89,0,0,1-17,10.94,66.6,66.6,0,0,1-23.79,4Q368.24,133,354.31,119.14Zm56.41-14.57q5.59-8,5.6-22.27,0-14.82-5.6-22.81t-16.38-8q-10.8,0-16.34,8T372.46,82.3q0,14,5.59,22.17t16.29,8.14Q405.13,112.61,410.72,104.57Z" class="cls-3" transform="translate(-36.43 4.92)"/><path d="M477,122.87q-10.06-10.16-10.06-27.82V54q0-10.4,3.88-15.7T483.13,33c5.3,0,9.12,1.76,11.48,5.25S498.14,47,498.14,54V94.56q0,8.64,4.46,13.34A15.07,15.07,0,0,0,514,112.61a18.73,18.73,0,0,0,14.28-6.28q5.84-6.27,5.84-15.79V54q0-10.4,3.87-15.7T550.34,33c5.29,0,9.12,1.76,11.48,5.25S565.35,47,565.35,54v60.73q0,8.73-3.83,12.9c-2.55,2.79-6.54,4.17-12,4.17q-15.3,0-15.3-17.26V113.4q-4.32,10-12.07,14.81T501.87,133A33.6,33.6,0,0,1,477,122.87Z" class="cls-3" transform="translate(-36.43 4.92)"/><path d="M603.66,124.19q-8-8.62-8-28.55V53.94h-6q-5.49,0-8.19-2.65t-2.7-8.63q0-10.3,10.5-10.3h8.43l2.16-19.13Q601.65-4.92,614.8-4.92,627-4.92,627,14.89V32.36h12q10.3,0,10.3,11c0,3.59-.88,6.26-2.65,8s-4.51,2.6-8.24,2.6H627V88.87q0,12.66,2.95,17.42t10.79,4.36l5.69-.29a7,7,0,0,1,4.86,1.62,8.4,8.4,0,0,1,2.84,4.36,18.31,18.31,0,0,1,.64,5.5,10.38,10.38,0,0,1-1.62,5.24,8.19,8.19,0,0,1-4.07,3.39q-6.78,2.66-22.67,2.65Q611.66,132.82,603.66,124.19Z" class="cls-3" transform="translate(-36.43 4.92)"/></svg>