<svg xmlns="http://www.w3.org/2000/svg" xmlns:xlink="http://www.w3.org/1999/xlink" style="margin:auto;background:0 0;display:block;shape-rendering:auto" width="200" height="200" preserveAspectRatio="xMidYMid" viewBox="0 0 100 100"><g transform="rotate(0 50 50)"><rect width="7" height="13" x="46.5" y="22.5" fill="#00a896" rx="3.5" ry="3.64"><animate attributeName="opacity" begin="-0.9s" dur="1s" keyTimes="0;1" repeatCount="indefinite" values="1;0"/></rect></g><g transform="rotate(36 50 50)"><rect width="7" height="13" x="46.5" y="22.5" fill="#00a896" rx="3.5" ry="3.64"><animate attributeName="opacity" begin="-0.8s" dur="1s" keyTimes="0;1" repeatCount="indefinite" values="1;0"/></rect></g><g transform="rotate(72 50 50)"><rect width="7" height="13" x="46.5" y="22.5" fill="#00a896" rx="3.5" ry="3.64"><animate attributeName="opacity" begin="-0.7s" dur="1s" keyTimes="0;1" repeatCount="indefinite" values="1;0"/></rect></g><g transform="rotate(108 50 50)"><rect width="7" height="13" x="46.5" y="22.5" fill="#00a896" rx="3.5" ry="3.64"><animate attributeName="opacity" begin="-0.6s" dur="1s" keyTimes="0;1" repeatCount="indefinite" values="1;0"/></rect></g><g transform="rotate(144 50 50)"><rect width="7" height="13" x="46.5" y="22.5" fill="#00a896" rx="3.5" ry="3.64"><animate attributeName="opacity" begin="-0.5s" dur="1s" keyTimes="0;1" repeatCount="indefinite" values="1;0"/></rect></g><g transform="rotate(180 50 50)"><rect width="7" height="13" x="46.5" y="22.5" fill="#00a896" rx="3.5" ry="3.64"><animate attributeName="opacity" begin="-0.4s" dur="1s" keyTimes="0;1" repeatCount="indefinite" values="1;0"/></rect></g><g transform="rotate(216 50 50)"><rect width="7" height="13" x="46.5" y="22.5" fill="#00a896" rx="3.5" ry="3.64"><animate attributeName="opacity" begin="-0.3s" dur="1s" keyTimes="0;1" repeatCount="indefinite" values="1;0"/></rect></g><g transform="rotate(252 50 50)"><rect width="7" height="13" x="46.5" y="22.5" fill="#00a896" rx="3.5" ry="3.64"><animate attributeName="opacity" begin="-0.2s" dur="1s" keyTimes="0;1" repeatCount="indefinite" values="1;0"/></rect></g><g transform="rotate(288 50 50)"><rect width="7" height="13" x="46.5" y="22.5" fill="#00a896" rx="3.5" ry="3.64"><animate attributeName="opacity" begin="-0.1s" dur="1s" keyTimes="0;1" repeatCount="indefinite" values="1;0"/></rect></g><g transform="rotate(324 50 50)"><rect width="7" height="13" x="46.5" y="22.5" fill="#00a896" rx="3.5" ry="3.64"><animate attributeName="opacity" begin="0s" dur="1s" keyTimes="0;1" repeatCount="indefinite" values="1;0"/></rect></g></svg>